<?xml version="1.0" encoding="utf-8"?>
<!-- Generator: Adobe Illustrator 15.0.0, SVG Export Plug-In . SVG Version: 6.00 Build 0)  -->
<!DOCTYPE svg PUBLIC "-//W3C//DTD SVG 1.1//EN" "http://www.w3.org/Graphics/SVG/1.1/DTD/svg11.dtd">
<svg version="1.1" id="Ebene_1" xmlns="http://www.w3.org/2000/svg" xmlns:xlink="http://www.w3.org/1999/xlink" x="0px" y="0px"
	 width="566.93px" height="566.93px" viewBox="0 0 566.93 566.93" enable-background="new 0 0 566.93 566.93" xml:space="preserve">
<g>
	<path d="M283.465,538.583c140.673,0,255.118-114.447,255.118-255.118c0-140.672-114.445-255.118-255.118-255.118
		S28.347,142.793,28.347,283.465C28.347,424.136,142.792,538.583,283.465,538.583z M283.465,40.443
		c134.003,0,243.021,109.019,243.021,243.021S417.468,526.486,283.465,526.486c-16.163,0-31.958-1.601-47.248-4.627
		c15.15-33.232,86.635-179.464,185.525-213.79c1.167-0.406,28.299-10.087,33.017-31.721c3.55-8.941,5.245-37.194,5.554-42.899
		c1.984-36.544-1.176-40.074-2.692-41.77c-23.68-26.471-53.619-31.917-85.316-37.684c-9.228-1.679-18.77-3.414-28.364-5.711
		c-51.113-12.23-130.301,7.418-149.05,14.374c-17.359-0.856-24.801,8.32-28.894,15.415c-2.566,4.446-3.96,9.347-4.146,14.336
		L120.5,222.378c-2.704,1.961-3.307,5.742-1.348,8.446c1.184,1.633,3.03,2.5,4.902,2.5c1.231,0,2.472-0.374,3.545-1.151
		l36.67-26.578c2.605,6.259,7.135,11.48,13.105,14.926c0.952,0.55,1.99,0.811,3.017,0.811c2.091,0,4.124-1.085,5.245-3.025
		c1.668-2.894,0.678-6.592-2.216-8.262c-4.39-2.533-7.531-6.626-8.843-11.522s-0.641-10.011,1.895-14.4
		c3.696-6.406,8.155-10.201,18.927-9.337c0.059,0.005,0.115-0.007,0.174-0.003c0.211,0.011,0.422-0.001,0.635-0.013
		c0.198-0.01,0.395-0.018,0.587-0.047c0.174-0.026,0.344-0.073,0.516-0.115c0.225-0.056,0.446-0.111,0.661-0.19
		c0.052-0.02,0.105-0.024,0.157-0.045c15.45-6.183,93.416-26.186,142.996-14.321c9.917,2.373,19.626,4.14,29.014,5.847
		c25.833,4.7,48.72,8.865,67.755,23.785c-7.965,0.592-16.563,2.321-20.899,6.723c-2.366,2.401-3.518,5.521-3.246,8.786
		c1.032,12.386,24.152,27.831,34.125,33.94c-0.857,12.595-2.164,24.588-3.573,30.281c-13.717,3.091-42.669,6.226-52.524-7.976
		c-1.906-2.743-5.677-3.424-8.418-1.519c-2.744,1.905-3.425,5.673-1.52,8.417c12.477,17.972,40.415,16.866,56.592,14.434
		c-7.393,9.109-20.495,13.817-20.656,13.873c-48.993,17.008-96.854,60.512-142.256,129.308
		c-27.344,41.433-45.469,80.052-51.358,93.205c-105.43-26.54-183.716-122.138-183.716-235.689
		C40.443,149.462,149.462,40.443,283.465,40.443z M448.461,201.559c0.559,4.808,0.55,13.727,0.159,23.675
		c-11.896-7.974-21.725-16.748-22.737-20.603C428.317,202.641,438.32,201.328,448.461,201.559z"/>
	<path d="M288.274,211.651h16.445c3.341,0,6.049-2.708,6.049-6.048s-2.708-6.048-6.049-6.048h-16.445
		c-3.341,0-6.049,2.708-6.049,6.048S284.934,211.651,288.274,211.651z"/>
</g>
</svg>
