<?xml version="1.0" encoding="utf-8"?>
<!-- Generator: Adobe Illustrator 15.0.0, SVG Export Plug-In . SVG Version: 6.00 Build 0)  -->
<!DOCTYPE svg PUBLIC "-//W3C//DTD SVG 1.1//EN" "http://www.w3.org/Graphics/SVG/1.1/DTD/svg11.dtd">
<svg version="1.1" id="Ebene_1" xmlns="http://www.w3.org/2000/svg" xmlns:xlink="http://www.w3.org/1999/xlink" x="0px" y="0px"
	 width="566.93px" height="566.93px" viewBox="0 0 566.93 566.93" enable-background="new 0 0 566.93 566.93" xml:space="preserve">
<g>
	<path fill="#1F885B" d="M124.121,486.172c-2.032,0-3.881,0.315-5.547,0.947s-3.088,1.549-4.265,2.75
		c-1.215,1.239-2.144,2.757-2.787,4.553c-0.645,1.797-0.967,3.835-0.967,6.114c0,2.403,0.335,4.513,1.004,6.327
		c0.669,1.815,1.598,3.311,2.787,4.487c1.214,1.202,2.642,2.085,4.283,2.648s3.466,0.846,5.473,0.846
		c1.065,0,2.041-0.084,2.927-0.251s1.706-0.368,2.462-0.604c0.893-0.284,1.613-0.557,2.165-0.817
		c0.552-0.26,1.167-0.539,1.849-0.836v-4.312h-0.26c-1.351,1.215-2.8,2.125-4.348,2.732c-1.549,0.606-3.209,0.91-4.98,0.91
		c-1.289,0-2.512-0.22-3.67-0.66c-1.158-0.439-2.172-1.117-3.039-2.034c-0.83-0.88-1.508-2.02-2.034-3.419
		c-0.526-1.4-0.79-3.072-0.79-5.018c0-1.858,0.238-3.496,0.715-4.915c0.478-1.419,1.144-2.593,1.998-3.521
		c0.88-0.954,1.88-1.657,3.002-2.109c1.121-0.452,2.381-0.678,3.781-0.678c1.709,0,3.313,0.291,4.812,0.873s3.01,1.512,4.534,2.787
		h0.278v-4.366c-1.809-0.904-3.453-1.536-4.934-1.896S125.608,486.172,124.121,486.172z"/>
	<path fill="#1F885B" d="M148.401,486.674l-10.072,27.669h3.735l2.713-7.712h11.968l2.713,7.712h3.92l-10.071-27.669H148.401z
		 M145.893,503.472l4.868-13.583l4.85,13.583H145.893z"/>
	<path fill="#1F885B" d="M184.272,488.401c-0.892-0.595-1.914-1.031-3.066-1.31c-1.151-0.279-2.558-0.418-4.218-0.418h-7.507v27.669
		h3.68v-10.313h3.679c1.981,0,3.624-0.238,4.925-0.715c1.301-0.478,2.428-1.192,3.381-2.146c0.769-0.769,1.367-1.676,1.794-2.723
		s0.642-2.184,0.642-3.41c0-1.61-0.289-2.941-0.865-3.995C186.14,489.987,185.325,489.107,184.272,488.401z M183.39,497.34
		c-0.241,0.656-0.652,1.282-1.235,1.877c-0.583,0.582-1.338,1.007-2.267,1.272c-0.93,0.267-2.137,0.399-3.624,0.399h-3.103v-11.057
		h3.642c1.164,0,2.128,0.084,2.89,0.251c0.762,0.168,1.439,0.443,2.035,0.827c0.681,0.446,1.189,1.022,1.523,1.729
		s0.502,1.536,0.502,2.49C183.753,495.946,183.632,496.684,183.39,497.34z"/>
	<path fill="#1F885B" d="M209.185,499.347c-1.016-0.26-2.255-0.514-3.717-0.762c-1.461-0.248-2.589-0.458-3.382-0.632
		c-1.499-0.347-2.546-0.849-3.14-1.505c-0.596-0.657-0.893-1.562-0.893-2.714c0-1.288,0.598-2.341,1.793-3.158
		c1.195-0.818,2.778-1.227,4.748-1.227c1.796,0,3.553,0.294,5.268,0.883c1.717,0.588,3.101,1.328,4.154,2.22h0.26v-4.348
		c-1.252-0.545-2.688-1.004-4.312-1.375c-1.623-0.372-3.407-0.558-5.352-0.558c-3.011,0-5.494,0.74-7.452,2.221
		c-1.957,1.48-2.936,3.379-2.936,5.695c0,2.02,0.592,3.658,1.775,4.915c1.182,1.258,3,2.146,5.453,2.667
		c1.215,0.247,2.363,0.452,3.447,0.613s2.09,0.365,3.02,0.612c1.227,0.322,2.141,0.774,2.741,1.357
		c0.601,0.582,0.901,1.486,0.901,2.713c0,1.425-0.635,2.564-1.905,3.419c-1.27,0.854-3.044,1.282-5.323,1.282
		c-1.611,0-3.333-0.316-5.166-0.948c-1.834-0.632-3.451-1.529-4.851-2.694h-0.26v4.608c1.647,0.731,3.267,1.282,4.859,1.654
		c1.591,0.371,3.385,0.558,5.38,0.558c1.857,0,3.447-0.224,4.766-0.669c1.32-0.446,2.475-1.065,3.466-1.858
		c0.904-0.73,1.607-1.623,2.109-2.676c0.501-1.053,0.753-2.118,0.753-3.196c0-1.982-0.521-3.524-1.562-4.627
		S211.241,499.892,209.185,499.347z"/>
	<path fill="#1F885B" d="M241.306,503.509c0,1.351-0.102,2.481-0.307,3.392c-0.204,0.91-0.548,1.719-1.031,2.425
		c-0.557,0.818-1.301,1.429-2.229,1.831s-2.057,0.604-3.382,0.604c-1.313,0-2.438-0.204-3.373-0.613s-1.676-1.016-2.221-1.821
		c-0.482-0.706-0.826-1.492-1.031-2.359c-0.204-0.867-0.307-2.051-0.307-3.55v-16.742h-3.68v16.557c0,2.094,0.221,3.859,0.66,5.296
		c0.439,1.438,1.162,2.664,2.165,3.68c0.88,0.892,1.964,1.567,3.252,2.025s2.8,0.688,4.534,0.688c1.697,0,3.184-0.217,4.459-0.65
		c1.276-0.434,2.392-1.121,3.346-2.062c1.004-0.991,1.725-2.233,2.164-3.726c0.44-1.493,0.66-3.243,0.66-5.25v-16.557h-3.68V503.509
		z"/>
	<polygon fill="#1F885B" points="259.495,486.674 255.815,486.674 255.815,514.343 273.32,514.343 273.32,511.072 259.495,511.072 	
		"/>
	<polygon fill="#1F885B" points="280.234,514.343 298.464,514.343 298.464,511.072 283.914,511.072 283.914,500.796 
		298.464,500.796 298.464,497.525 283.914,497.525 283.914,489.944 298.464,489.944 298.464,486.674 280.234,486.674 	"/>
	<polygon fill="#1F885B" points="338.97,497.525 325.163,497.525 325.163,486.674 321.483,486.674 321.483,514.343 325.163,514.343 
		325.163,500.796 338.97,500.796 338.97,514.343 342.649,514.343 342.649,486.674 338.97,486.674 	"/>
	<path fill="#1F885B" d="M373.563,489.851c-1.104-1.201-2.443-2.127-4.023-2.777s-3.361-0.976-5.342-0.976
		c-1.908,0-3.67,0.322-5.287,0.966c-1.617,0.645-2.971,1.573-4.061,2.787c-1.141,1.276-2.006,2.81-2.602,4.6
		c-0.594,1.79-0.893,3.812-0.893,6.067c0,2.292,0.301,4.329,0.902,6.113c0.6,1.784,1.459,3.289,2.574,4.516
		c1.113,1.227,2.467,2.162,4.059,2.806c1.592,0.645,3.361,0.967,5.307,0.967c1.994,0,3.768-0.316,5.324-0.948
		c1.553-0.632,2.9-1.572,4.041-2.824c1.102-1.201,1.961-2.704,2.574-4.506c0.613-1.803,0.92-3.844,0.92-6.123
		s-0.301-4.317-0.902-6.114C375.554,492.607,374.69,491.09,373.563,489.851z M370.786,508.852c-1.631,1.927-3.82,2.89-6.57,2.89
		s-4.943-0.963-6.578-2.89c-1.635-1.926-2.453-4.704-2.453-8.334c0-3.593,0.803-6.364,2.406-8.315
		c1.605-1.951,3.812-2.927,6.625-2.927c2.787,0,4.986,0.976,6.598,2.927c1.609,1.951,2.416,4.723,2.416,8.315
		C373.229,504.147,372.415,506.926,370.786,508.852z"/>
	<polygon fill="#1F885B" points="381.101,489.944 390.985,489.944 390.985,514.343 394.665,514.343 394.665,489.944 
		404.552,489.944 404.552,486.674 381.101,486.674 	"/>
	<polygon fill="#1F885B" points="411.122,514.343 429.353,514.343 429.353,511.072 414.802,511.072 414.802,500.796 
		429.353,500.796 429.353,497.525 414.802,497.525 414.802,489.944 429.353,489.944 429.353,486.674 411.122,486.674 	"/>
	<polygon fill="#1F885B" points="442.671,486.674 438.993,486.674 438.993,514.343 456.497,514.343 456.497,511.072 
		442.671,511.072 	"/>
	<path fill="#1F885B" d="M282.465,389.463c93.036,0,168.727-75.69,168.727-168.726S375.501,52.011,282.465,52.011
		s-168.727,75.69-168.727,168.726S189.429,389.463,282.465,389.463z M282.465,60.011c88.625,0,160.727,72.102,160.727,160.726
		S371.09,381.463,282.465,381.463c-10.69,0-21.136-1.059-31.248-3.06c10.02-21.979,57.297-118.691,122.7-141.394
		c0.771-0.269,18.716-6.671,21.836-20.979c2.348-5.914,3.469-24.599,3.673-28.373c1.312-24.168-0.777-26.503-1.78-27.625
		c-15.661-17.507-35.462-21.109-56.426-24.923c-6.103-1.11-12.413-2.258-18.759-3.777c-33.805-8.089-86.177,4.906-98.577,9.506
		c-11.481-0.566-16.402,5.502-19.109,10.195c-1.697,2.94-2.619,6.182-2.742,9.481l-27.347,19.82
		c-1.788,1.296-2.188,3.797-0.892,5.586c0.783,1.08,2.004,1.653,3.242,1.653c0.814,0,1.635-0.248,2.345-0.762l24.252-17.578
		c1.723,4.139,4.719,7.593,8.667,9.872c0.63,0.364,1.316,0.536,1.995,0.536c1.383,0,2.728-0.718,3.469-2.001
		c1.104-1.914,0.448-4.36-1.466-5.464c-2.903-1.676-4.98-4.382-5.849-7.621s-0.424-6.621,1.253-9.524
		c2.444-4.236,5.394-6.747,12.518-6.175c0.039,0.003,0.076-0.004,0.115-0.002c0.14,0.007,0.279-0.001,0.42-0.008
		c0.131-0.007,0.261-0.012,0.388-0.031c0.115-0.017,0.228-0.048,0.341-0.076c0.148-0.037,0.295-0.073,0.438-0.126
		c0.034-0.013,0.069-0.016,0.104-0.03c10.219-4.089,61.782-17.318,94.573-9.472c6.559,1.57,12.979,2.738,19.188,3.867
		c17.085,3.108,32.222,5.863,44.811,15.73c-5.268,0.392-10.954,1.535-13.822,4.446c-1.564,1.588-2.326,3.652-2.146,5.811
		c0.683,8.191,15.974,18.406,22.569,22.447c-0.567,8.33-1.432,16.262-2.363,20.027c-9.072,2.044-28.22,4.118-34.738-5.274
		c-1.261-1.814-3.754-2.265-5.567-1.004c-1.814,1.26-2.265,3.752-1.005,5.567c8.252,11.886,26.729,11.154,37.428,9.546
		c-4.889,6.024-13.555,9.138-13.661,9.175c-32.402,11.247-64.056,40.02-94.083,85.519c-18.084,27.402-30.072,52.943-33.967,61.643
		c-69.728-17.552-121.504-80.777-121.504-155.876C121.738,132.112,193.84,60.011,282.465,60.011z M391.588,166.567
		c0.369,3.18,0.363,9.078,0.105,15.658c-7.868-5.273-14.368-11.076-15.038-13.626C378.266,167.283,384.881,166.415,391.588,166.567z
		"/>
	<path fill="#1F885B" d="M285.646,173.242h10.877c2.209,0,4-1.791,4-4s-1.791-4-4-4h-10.877c-2.209,0-4,1.791-4,4
		S283.437,173.242,285.646,173.242z"/>
	<path fill="#1F885B" d="M119.444,458.485v-17.498H103.15v4.765h10.927v9.995c-1.314,0.548-2.844,0.995-4.588,1.342
		c-1.743,0.348-3.49,0.521-5.244,0.521c-4.783,0-8.562-1.465-11.336-4.396c-2.775-2.93-4.163-7.033-4.163-12.31
		c0-5.002,1.328-8.968,3.984-11.898c2.656-2.93,6.267-4.395,10.831-4.395c2.025,0,3.838,0.187,5.436,0.561
		c1.598,0.375,3.025,0.845,4.285,1.411c1.041,0.475,2.1,1.067,3.178,1.779c1.076,0.712,1.898,1.287,2.464,1.726h0.493v-6.436
		c-2.793-1.332-5.399-2.277-7.818-2.834c-2.42-0.557-4.788-0.836-7.106-0.836c-6.646,0-11.871,1.886-15.678,5.655
		c-3.807,3.771-5.71,8.914-5.71,15.432c0,3.56,0.512,6.668,1.533,9.324c1.023,2.656,2.475,4.87,4.355,6.641
		c1.861,1.753,4.116,3.067,6.764,3.943c2.646,0.877,5.559,1.314,8.735,1.314c2.465,0,5.016-0.379,7.654-1.137
		C114.784,460.398,117.217,459.509,119.444,458.485z"/>
	<path fill="#1F885B" d="M145.09,436.126c0.722,0.082,1.466,0.215,2.231,0.397h0.274v-5.285c-0.804-0.128-1.406-0.215-1.808-0.261
		c-0.401-0.045-1.05-0.068-1.944-0.068c-1.625,0-3.218,0.343-4.778,1.027s-3.364,1.849-5.408,3.491v-4.519h-5.148v30.589h5.148
		v-21.716c1.369-1.113,2.793-2.022,4.271-2.725c1.479-0.703,3.013-1.055,4.601-1.055
		C143.515,436.003,144.368,436.044,145.09,436.126z"/>
	<path fill="#1F885B" d="M177.444,459.636v-5.613h-0.273c-0.895,0.803-2.396,1.62-4.505,2.45c-2.108,0.831-4.203,1.246-6.284,1.246
		c-1.57,0-3.008-0.219-4.313-0.657c-1.306-0.438-2.433-1.095-3.382-1.972c-0.986-0.895-1.762-2.04-2.328-3.437
		s-0.849-3.035-0.849-4.916h22.538v-2.793c0-4.437-1.119-7.859-3.355-10.27c-2.236-2.409-5.418-3.614-9.543-3.614
		c-4.455,0-8.047,1.47-10.776,4.409s-4.094,6.91-4.094,11.912c0,5.057,1.424,8.959,4.272,11.707
		c2.848,2.748,6.809,4.121,11.885,4.121c1.989,0,3.889-0.246,5.695-0.739C173.939,460.978,175.71,460.366,177.444,459.636z
		 M158.289,436.742c1.634-1.625,3.829-2.438,6.587-2.438c2.738,0,4.777,0.74,6.119,2.219s2.022,3.569,2.041,6.271H155.51
		C155.729,440.385,156.655,438.367,158.289,436.742z"/>
	<path fill="#1F885B" d="M205.542,461.471c1.807-0.493,3.578-1.104,5.312-1.835v-5.613h-0.273c-0.895,0.803-2.396,1.62-4.506,2.45
		c-2.107,0.831-4.203,1.246-6.284,1.246c-1.57,0-3.008-0.219-4.313-0.657c-1.305-0.438-2.433-1.095-3.381-1.972
		c-0.986-0.895-1.763-2.04-2.328-3.437c-0.566-1.396-0.85-3.035-0.85-4.916h22.538v-2.793c0-4.437-1.118-7.859-3.354-10.27
		c-2.236-2.409-5.418-3.614-9.544-3.614c-4.454,0-8.046,1.47-10.776,4.409c-2.729,2.939-4.094,6.91-4.094,11.912
		c0,5.057,1.424,8.959,4.272,11.707s6.81,4.121,11.885,4.121C201.835,462.21,203.734,461.964,205.542,461.471z M191.698,436.742
		c1.635-1.625,3.83-2.438,6.587-2.438c2.738,0,4.778,0.74,6.12,2.219s2.021,3.569,2.041,6.271h-17.527
		C189.139,440.385,190.065,438.367,191.698,436.742z"/>
	<path fill="#1F885B" d="M224.409,438.659c1.406-1.077,2.876-1.962,4.41-2.656c1.533-0.693,3.002-1.041,4.408-1.041
		c1.369,0,2.482,0.188,3.342,0.562c0.857,0.375,1.515,0.945,1.971,1.712c0.438,0.694,0.74,1.656,0.904,2.889
		s0.246,2.552,0.246,3.957v17.417h5.148v-19.854c0-3.742-0.867-6.609-2.602-8.6c-1.734-1.989-4.254-2.984-7.559-2.984
		c-1.807,0-3.568,0.374-5.285,1.123c-1.716,0.748-3.377,1.789-4.984,3.121v-3.396h-5.147v30.589h5.147V438.659z"/>
	<polygon fill="#1F885B" points="293.146,443.424 282.273,420.723 274.88,420.723 274.88,461.498 279.946,461.498 279.946,426.363 
		291.201,450.271 294.432,450.271 305.77,426.363 305.77,461.498 311.191,461.498 311.191,420.723 303.66,420.723 	"/>
	<path fill="#1F885B" d="M341.973,432.525c-1.169-0.858-2.552-1.466-4.149-1.821c-1.598-0.356-3.474-0.534-5.627-0.534
		c-1.845,0-3.716,0.164-5.614,0.493c-1.898,0.328-3.351,0.63-4.354,0.903v5.23h0.273c1.771-0.675,3.486-1.191,5.148-1.547
		c1.661-0.356,3.167-0.534,4.519-0.534c1.113,0,2.181,0.073,3.204,0.219c1.021,0.146,1.898,0.43,2.629,0.85
		c0.767,0.438,1.355,1.04,1.766,1.807c0.411,0.768,0.616,1.735,0.616,2.903v0.794c-2.994,0.146-5.796,0.365-8.407,0.657
		c-2.61,0.292-4.847,0.849-6.709,1.671c-1.844,0.821-3.264,1.948-4.258,3.382c-0.996,1.434-1.493,3.309-1.493,5.627
		c0,2.83,0.959,5.158,2.876,6.983c1.917,1.826,4.253,2.738,7.01,2.738c1.497,0,2.803-0.142,3.916-0.424
		c1.114-0.283,2.1-0.635,2.958-1.055c0.73-0.328,1.483-0.771,2.259-1.328c0.776-0.557,1.393-0.99,1.849-1.301v3.259h5.121V440.74
		c0-1.972-0.301-3.624-0.903-4.956C343.999,434.451,343.122,433.365,341.973,432.525z M340.384,453.967
		c-1.277,0.986-2.665,1.831-4.162,2.533c-1.497,0.703-3.149,1.055-4.957,1.055c-2.173,0-3.788-0.442-4.847-1.328
		c-1.06-0.886-1.589-2.204-1.589-3.957c0-1.552,0.457-2.771,1.37-3.656c0.912-0.885,2.108-1.537,3.587-1.958
		c1.241-0.347,2.926-0.611,5.053-0.794c2.126-0.183,3.975-0.319,5.545-0.411V453.967z"/>
	<path fill="#1F885B" d="M355.418,430.909v30.589h5.148v-21.716c1.369-1.113,2.793-2.022,4.271-2.725
		c1.479-0.703,3.013-1.055,4.601-1.055c0.986,0,1.839,0.041,2.561,0.123c0.721,0.082,1.465,0.215,2.232,0.397h0.273v-5.285
		c-0.804-0.128-1.406-0.215-1.808-0.261c-0.401-0.045-1.05-0.068-1.944-0.068c-1.625,0-3.218,0.343-4.778,1.027
		s-3.364,1.849-5.408,3.491v-4.519H355.418z"/>
	<path fill="#1F885B" d="M416.103,435.564c0.785,0.402,1.388,0.995,1.808,1.78c0.383,0.73,0.634,1.707,0.753,2.931
		c0.118,1.223,0.178,2.491,0.178,3.806v17.417h5.148v-19.854c0-3.651-0.799-6.495-2.396-8.53c-1.598-2.036-4.075-3.054-7.435-3.054
		c-1.954,0-3.788,0.388-5.504,1.164c-1.717,0.775-3.615,2.04-5.696,3.792c-0.712-1.551-1.794-2.766-3.245-3.642
		s-3.218-1.314-5.299-1.314c-1.808,0-3.51,0.374-5.107,1.123c-1.598,0.748-3.2,1.789-4.806,3.121v-3.396h-5.148v30.589h5.148
		v-22.839c1.405-1.077,2.815-1.962,4.23-2.656c1.415-0.693,2.825-1.041,4.231-1.041c1.479,0,2.61,0.196,3.396,0.589
		c0.784,0.394,1.387,0.981,1.808,1.767c0.383,0.73,0.634,1.702,0.753,2.916c0.118,1.215,0.178,2.497,0.178,3.848v17.417h5.148
		v-19.58c0-0.548-0.019-1.1-0.055-1.657c-0.037-0.557-0.082-1.044-0.137-1.465c1.441-1.113,2.884-2.03,4.326-2.752
		c1.442-0.721,2.885-1.082,4.327-1.082C414.186,434.962,415.317,435.163,416.103,435.564z"/>
	<path fill="#1F885B" d="M445.87,430.061c-4.327,0-7.764,1.447-10.311,4.341s-3.82,6.832-3.82,11.816
		c0,4.983,1.273,8.918,3.82,11.803s5.983,4.326,10.311,4.326c4.29,0,7.713-1.441,10.27-4.326c2.556-2.885,3.834-6.819,3.834-11.803
		c0-4.984-1.278-8.923-3.834-11.816C453.583,431.508,450.16,430.061,445.87,430.061z M452.319,454.967
		c-1.561,1.963-3.711,2.944-6.449,2.944c-2.775,0-4.938-0.99-6.49-2.972c-1.552-1.98-2.327-4.889-2.327-8.722
		c0-3.962,0.771-6.905,2.313-8.832c1.543-1.926,3.711-2.889,6.504-2.889c2.757,0,4.911,0.963,6.463,2.889
		c1.552,1.927,2.328,4.87,2.328,8.832C454.661,450.088,453.88,453.005,452.319,454.967z"/>
	<path fill="#1F885B" d="M483.825,435.236v-4.327H473.2v-8.79h-5.148v8.79h-3.478v4.327h3.478v16.267
		c0,3.706,0.812,6.398,2.438,8.078c1.624,1.68,3.998,2.52,7.12,2.52c0.894,0,1.912-0.082,3.053-0.246
		c1.141-0.165,2.195-0.374,3.163-0.63v-4.629h-0.273c-0.402,0.165-1.06,0.37-1.972,0.616c-0.913,0.247-1.79,0.37-2.629,0.37
		c-1.442,0-2.516-0.169-3.218-0.507c-0.703-0.337-1.256-0.871-1.657-1.602c-0.438-0.785-0.694-1.63-0.767-2.533
		c-0.073-0.903-0.109-2.159-0.109-3.766v-13.938H483.825z"/>
</g>
</svg>
