<?xml version="1.0" encoding="utf-8"?>
<!-- Generator: Adobe Illustrator 15.0.0, SVG Export Plug-In . SVG Version: 6.00 Build 0)  -->
<!DOCTYPE svg PUBLIC "-//W3C//DTD SVG 1.1//EN" "http://www.w3.org/Graphics/SVG/1.1/DTD/svg11.dtd">
<svg version="1.1" id="Ebene_1" xmlns="http://www.w3.org/2000/svg" xmlns:xlink="http://www.w3.org/1999/xlink" x="0px" y="0px"
	 width="566.93px" height="566.93px" viewBox="0 0 566.93 566.93" enable-background="new 0 0 566.93 566.93" xml:space="preserve">
<g>
	<path fill="#2F874F" d="M283.465,538.582c140.673,0,255.118-114.446,255.118-255.117c0-140.672-114.445-255.117-255.118-255.117
		S28.347,142.793,28.347,283.465C28.347,424.136,142.792,538.582,283.465,538.582z M283.465,40.443
		c134.003,0,243.021,109.02,243.021,243.021S417.468,526.485,283.465,526.485c-16.163,0-31.958-1.601-47.248-4.626
		c15.15-33.231,86.635-179.464,185.525-213.79c1.167-0.406,28.299-10.087,33.017-31.721c3.55-8.941,5.245-37.194,5.554-42.899
		c1.984-36.543-1.176-40.074-2.692-41.769c-23.68-26.472-53.619-31.918-85.316-37.685c-9.228-1.679-18.77-3.414-28.364-5.711
		c-51.113-12.23-130.301,7.418-149.05,14.374c-17.359-0.856-24.801,8.32-28.894,15.415c-2.566,4.446-3.96,9.347-4.146,14.336
		L120.5,222.378c-2.704,1.961-3.307,5.742-1.348,8.446c1.184,1.633,3.03,2.5,4.902,2.5c1.231,0,2.472-0.374,3.545-1.151
		l36.67-26.578c2.605,6.259,7.135,11.48,13.105,14.926c0.952,0.551,1.99,0.811,3.017,0.811c2.091,0,4.124-1.085,5.245-3.025
		c1.668-2.894,0.678-6.592-2.216-8.262c-4.39-2.533-7.531-6.626-8.843-11.522c-1.312-4.896-0.641-10.011,1.895-14.4
		c3.696-6.405,8.155-10.201,18.927-9.337c0.059,0.005,0.115-0.007,0.174-0.003c0.211,0.011,0.422-0.001,0.635-0.013
		c0.198-0.01,0.395-0.018,0.587-0.047c0.174-0.026,0.344-0.073,0.516-0.115c0.225-0.056,0.447-0.11,0.662-0.19
		c0.052-0.02,0.105-0.024,0.156-0.045c15.451-6.183,93.417-26.186,142.997-14.321c9.917,2.373,19.626,4.14,29.014,5.847
		c25.833,4.7,48.72,8.865,67.755,23.785c-7.965,0.592-16.563,2.321-20.899,6.723c-2.366,2.401-3.518,5.521-3.246,8.786
		c1.032,12.386,24.152,27.831,34.125,33.94c-0.857,12.596-2.164,24.588-3.573,30.281c-13.717,3.091-42.669,6.226-52.524-7.976
		c-1.906-2.743-5.677-3.424-8.418-1.519c-2.744,1.905-3.425,5.673-1.52,8.418c12.477,17.971,40.415,16.864,56.592,14.434
		c-7.393,9.108-20.495,13.816-20.656,13.873c-48.993,17.006-96.854,60.511-142.256,129.306
		c-27.344,41.433-45.469,80.051-51.358,93.205C118.729,492.614,40.443,397.016,40.443,283.465
		C40.443,149.463,149.462,40.443,283.465,40.443z M448.461,201.559c0.559,4.808,0.55,13.727,0.159,23.675
		c-11.896-7.974-21.725-16.747-22.737-20.603C428.317,202.641,438.32,201.328,448.461,201.559z"/>
	<path fill="#2F874F" d="M288.274,211.651h16.445c3.341,0,6.049-2.708,6.049-6.048s-2.708-6.048-6.049-6.048h-16.445
		c-3.341,0-6.049,2.708-6.049,6.048S284.934,211.651,288.274,211.651z"/>
</g>
</svg>
